# xmcd
#
# Track frame offsets: 
#        150
#        18344
#        34129
#        53769
#        80447
#        94437
#        106860
#        118052
#        130368
#        150336
#        169551
#        201182
#
# Disc length: 2960 seconds
#
# Revision: 0
# Processed by: cddbd v1.5.2PL0 Copyright (c) Steve Scherf et al.
# Submitted via: ExactAudioCopy v1.2
#
DISCID=940b8e0c
DTITLE=Eric Bibb - Global Griot [CD2]
DYEAR=2018
DGENRE=Blues
TTITLE0=Race and Equality
TTITLE1=Grateful
TTITLE2=All Because
TTITLE3=Spirit Day (feat. Solo Cissokho)
TTITLE4=Let God
TTITLE5=Last Night I Had the Strangest Dream
TTITLE6=Picture a New World
TTITLE7=New Friends (feat. Linda Tillery)
TTITLE8=Mole in the Ground
TTITLE9=Michael, Row da Boat Ashore
TTITLE10=Needed Time
TTITLE11=Photo on the Wall
EXTD=
EXTT0=
EXTT1=
EXTT2=
EXTT3=
EXTT4=
EXTT5=
EXTT6=
EXTT7=
EXTT8=
EXTT9=
EXTT10=
EXTT11=
PLAYORDER=
